<svg width="283" height="51" viewBox="0 0 283 51" fill="none" xmlns="http://www.w3.org/2000/svg">
<path d="M26.6655 13.04H25.1605C25.1139 13.04 25.0789 13.04 25.0555 13.04V33.445C25.0789 34.0517 25.3005 34.5767 25.7205 35.02C26.1639 35.44 26.6889 35.65 27.2955 35.65H27.7505V36H17.1105V35.65H17.5655C18.4055 35.65 19.0472 35.2883 19.4905 34.565C19.6772 34.2383 19.7822 33.8767 19.8055 33.48V14.055C19.7822 13.4483 19.5489 12.935 19.1055 12.515C18.6855 12.0717 18.1722 11.85 17.5655 11.85H17.1105V11.5H29.1155C31.3789 11.5 33.2922 11.99 34.8555 12.97C35.6489 13.46 36.2789 14.1483 36.7455 15.035C37.2122 15.8983 37.4455 17.0417 37.4455 18.465C37.4455 19.865 36.9555 21.2183 35.9755 22.525C34.9955 23.8317 33.5722 24.5783 31.7055 24.765C33.0589 25.2083 34.2489 26.235 35.2755 27.845C37.7955 31.8817 39.6622 34.285 40.8755 35.055C41.4822 35.4283 42.2405 35.6267 43.1505 35.65V36H39.7205C37.6905 36 35.9989 35.7317 34.6455 35.195C33.3155 34.6583 32.2655 33.7133 31.4955 32.36C31.0522 31.59 30.0839 29.595 28.5905 26.375C27.9372 24.9517 27.1439 24.17 26.2105 24.03V23.68H27.2955C28.3455 23.68 29.2672 23.365 30.0605 22.735C30.8772 22.105 31.4255 21.0783 31.7055 19.655C31.7989 19.165 31.8455 18.78 31.8455 18.5C31.8455 16.5867 31.4605 15.21 30.6905 14.37C29.9205 13.5067 28.9289 13.0633 27.7155 13.04C27.4822 13.04 27.1322 13.04 26.6655 13.04ZM51.6484 14.44C54.1451 12.1533 57.4934 11.01 61.6934 11.01C65.9167 11.01 69.2651 12.1533 71.7384 14.44C74.2351 16.7267 75.4834 19.83 75.4834 23.75C75.4834 27.67 74.2351 30.7733 71.7384 33.06C69.2651 35.3467 65.9167 36.49 61.6934 36.49C57.4934 36.49 54.1451 35.3467 51.6484 33.06C49.1751 30.7733 47.9384 27.67 47.9384 23.75C47.9384 19.83 49.1751 16.7267 51.6484 14.44ZM55.8134 32.01C57.2601 34.0167 59.2201 35.02 61.6934 35.02C64.1667 35.02 66.1267 34.0167 67.5734 32.01C69.0201 29.98 69.7434 27.2267 69.7434 23.75C69.7434 20.2733 69.0201 17.5317 67.5734 15.525C66.1267 13.495 64.1667 12.48 61.6934 12.48C59.2201 12.48 57.2601 13.495 55.8134 15.525C54.3901 17.5317 53.6784 20.2733 53.6784 23.75C53.6784 27.2267 54.3901 29.98 55.8134 32.01ZM84.1033 10.835C84.4533 10.975 85.0599 11.115 85.9233 11.255C86.8099 11.395 87.4283 11.465 87.7783 11.465C88.1516 11.465 88.3383 11.465 88.3383 11.465H99.5033C100.483 11.465 101.312 11.4067 101.988 11.29C102.665 11.1733 103.062 11.08 103.178 11.01V11.325L90.2283 34.53H97.5783C99.0716 34.53 100.367 34.0283 101.463 33.025C102.583 32.0217 103.377 30.6683 103.843 28.965H104.193L102.933 36H83.6133V35.685L96.4583 12.935H87.9883C86.5183 12.9583 85.4799 13.53 84.8733 14.65C84.5933 15.1867 84.4533 15.805 84.4533 16.505V16.925H84.1033V10.835ZM112.843 10.835C113.193 10.975 113.8 11.115 114.663 11.255C115.55 11.395 116.168 11.465 116.518 11.465C116.891 11.465 117.078 11.465 117.078 11.465H128.243C129.223 11.465 130.051 11.4067 130.728 11.29C131.405 11.1733 131.801 11.08 131.918 11.01V11.325L118.968 34.53H126.318C127.811 34.53 129.106 34.0283 130.203 33.025C131.323 32.0217 132.116 30.6683 132.583 28.965H132.933L131.673 36H112.353V35.685L125.198 12.935H116.728C115.258 12.9583 114.22 13.53 113.613 14.65C113.333 15.1867 113.193 15.805 113.193 16.505V16.925H112.843V10.835ZM155.793 35.65C156.399 35.65 156.913 35.44 157.333 35.02C157.776 34.5767 158.009 34.0517 158.033 33.445V14.055C158.009 13.4483 157.776 12.935 157.333 12.515C156.913 12.0717 156.399 11.85 155.793 11.85H155.338V11.5H165.978L165.943 11.85H165.523C164.916 11.85 164.391 12.0717 163.948 12.515C163.504 12.935 163.283 13.4483 163.283 14.055V34.495H167.868C169.571 34.495 170.994 34.005 172.138 33.025C173.304 32.045 174.168 30.6567 174.728 28.86H175.078L173.468 36H155.338V35.65H155.793ZM206.865 35.65H207.18V36H196.015V35.65H196.33C196.843 35.65 197.217 35.4983 197.45 35.195C197.707 34.8683 197.835 34.565 197.835 34.285C197.835 34.005 197.777 33.725 197.66 33.445L195.945 29.14H187.755L185.935 33.445C185.818 33.7483 185.76 34.04 185.76 34.32C185.76 34.5767 185.888 34.8683 186.145 35.195C186.402 35.4983 186.787 35.65 187.3 35.65H187.58V36H180.09V35.65H180.405C180.942 35.65 181.478 35.4867 182.015 35.16C182.552 34.8333 182.995 34.3433 183.345 33.69L191.43 15.385C192.527 13.075 193.11 11.5467 193.18 10.8H193.495L203.89 33.62C204.24 34.2967 204.683 34.81 205.22 35.16C205.757 35.4867 206.305 35.65 206.865 35.65ZM188.35 27.67H195.35L191.955 19.06L188.35 27.67ZM213.439 32.745C213.439 31.065 213.8 29.63 214.524 28.44H214.839C214.815 28.6267 214.804 28.8133 214.804 29C214.804 30.61 215.375 32.0217 216.519 33.235C217.685 34.425 219.272 35.02 221.279 35.02C222.842 35.02 224.055 34.6467 224.919 33.9C225.805 33.1533 226.249 32.2083 226.249 31.065C226.249 30.3883 226.027 29.7817 225.584 29.245C225.164 28.7083 224.452 28.1133 223.449 27.46L217.359 23.435C215.095 21.9183 213.964 20.0517 213.964 17.835C213.964 17.6017 213.987 17.3683 214.034 17.135C214.174 15.2917 214.885 13.81 216.169 12.69C217.475 11.57 219.214 11.01 221.384 11.01C222.667 11.01 224.254 11.1267 226.144 11.36H228.349L227.894 16.505H227.544C227.544 15.2917 227.089 14.3233 226.179 13.6C225.292 12.8533 224.102 12.48 222.609 12.48C220.789 12.48 219.47 13.04 218.654 14.16C218.234 14.6967 218.024 15.2333 218.024 15.77C218.024 16.3067 218.129 16.7617 218.339 17.135C218.665 17.7417 219.377 18.395 220.474 19.095L227.159 23.435C229.259 24.8117 230.309 26.6083 230.309 28.825C230.309 31.2983 229.457 33.2 227.754 34.53C226.074 35.8367 223.834 36.49 221.034 36.49C219.447 36.49 217.977 36.3033 216.624 35.93C215.294 35.5333 214.314 35.0083 213.684 34.355C213.52 33.9117 213.439 33.375 213.439 32.745ZM255.833 35.65C256.44 35.65 256.906 35.4983 257.233 35.195C257.77 34.6583 258.05 34.0867 258.073 33.48V24.555H246.733V33.445C246.733 34.0517 246.955 34.5767 247.398 35.02C247.841 35.44 248.366 35.65 248.973 35.65H249.393L249.428 36H238.788V35.65H239.243C239.85 35.65 240.363 35.44 240.783 35.02C241.226 34.5767 241.46 34.0517 241.483 33.445V14.055C241.46 13.4483 241.226 12.935 240.783 12.515C240.363 12.0717 239.85 11.85 239.243 11.85H238.788V11.5H249.428L249.393 11.85H248.973C248.366 11.85 247.841 12.0717 247.398 12.515C246.955 12.935 246.733 13.4483 246.733 14.055V23.05H258.073V14.055C258.05 13.4483 257.816 12.935 257.373 12.515C256.953 12.0717 256.44 11.85 255.833 11.85H255.378V11.5H266.018V11.85H265.563C264.956 11.85 264.431 12.0717 263.988 12.515C263.545 12.935 263.323 13.4483 263.323 14.055V33.445C263.323 34.0517 263.545 34.5767 263.988 35.02C264.431 35.44 264.956 35.65 265.563 35.65H266.018V36H255.378V35.65H255.833Z" fill="#9F65A6"/>
<path d="M0 1H283" stroke="#9F65A6" stroke-width="2"/>
<path d="M0 47H283" stroke="#9F65A6" stroke-width="2"/>
</svg>
