<svg id="svg1" width="260" height="261" viewBox="0 0 260 261" fill="none" xmlns="http://www.w3.org/2000/svg">
    <path d="M130.741 259C71.003 228.307 -21.75 92.8275 7.59551 33.0268C36.941 -26.7738 121.655 16.267 116.942 70.2472C112.225 124.227 41.559 166.313 41.559 166.313C41.559 166.313 228.229 110.472 208.93 180.513"
          stroke="#9F65A6" stroke-width="4" stroke-miterlimit="10" stroke-linecap="round" stroke-linejoin="round"
          stroke-dasharray= "751"  stroke-dashoffset="751"
    >
        <animate attributeName="stroke-dashoffset" begin="0s"
                 values="751; 0; -751" dur="2s" repeatCount="indefinite"  fill="freeze"  calcMode="linear"
        />
    </path>
    <path id="check" d="M130.863 72.4561C130.863 72.4561 187.201 98.4308 209.57 100.315C230.742 102.097 257.035 96.3057 257.971 62.498C258.619 39.109 248.6 14.2806 221.071 5.07108C204.582 -0.445754 186.198 5.31971 170.178 19.261C130.689 53.6235 97.5135 133.094 83.7192 182.413C79.0365 199.16 79.3449 211.803 87.3628 217.783C112.536 236.564 186.978 208.487 201.936 190.152"
          stroke="#9F65A6" stroke-width="4" stroke-miterlimit="10" stroke-linecap="round" stroke-linejoin="round" stroke-dasharray= "631"  stroke-dashoffset="631">
        <animate attributeName="stroke-dashoffset" begin="1s"
                 values="631; 0; -631" dur="2s" repeatCount="indefinite"  fill="freeze"  calcMode="linear"
        />
    </path>
</svg>
