<svg id="Layer_2" data-name="Layer 2" xmlns="http://www.w3.org/2000/svg" viewBox="0 0 1080 1080"><defs><style>.cls-1{fill:none;stroke:#9f65a6;stroke-linecap:round;stroke-linejoin:round;stroke-width:10px;}.cls-2{font-size:144px;fill:#000001;font-family:Cinzel-Regular, Cinzel;letter-spacing:0.12em;}.cls-3{letter-spacing:0.15em;}.cls-4{letter-spacing:0.17em;}</style></defs><title>heart_redlogo_fina0</title><path class="cls-1" d="M542.85,1028.53C312.33,911.25-45.59,393.58,67.65,165.08s440.14-64,422,142.22S198.71,674.37,198.71,674.37,919,461,844.57,728.63"/><path class="cls-1" d="M543.32,315.74S760.72,415,847,422.19c81.7,6.81,183.16-15.32,186.77-144.5,2.49-89.37-36.16-184.24-142.39-219.43-63.63-21.08-134.57,1-196.38,54.22-152.38,131.3-280.41,435-333.63,623.41-18.08,64-16.88,112.3,14.06,135.15,97.14,71.76,384.4-35.51,442.12-105.58"/><text class="cls-2" transform="translate(35.78 603.07)">R<tspan class="cls-3" x="115.34" y="0">O</tspan><tspan class="cls-4" x="258.19" y="0">ZZ LASH</tspan></text></svg>